<svg width="37" height="36" viewBox="0 0 37 36" fill="none" xmlns="http://www.w3.org/2000/svg">
<rect x="0.714687" y="0.493678" width="35.0126" height="35.0126" rx="17.5063" stroke="#E6E7E9" stroke-width="0.987356"/>
<g clip-path="url(#clip0_973_2001)">
<path d="M9.74048 17.8865C9.74048 17.8865 12.7025 11.9624 17.8862 11.9624C23.0698 11.9624 26.0319 17.8865 26.0319 17.8865C26.0319 17.8865 23.0698 23.8107 17.8862 23.8107C12.7025 23.8107 9.74048 17.8865 9.74048 17.8865Z" stroke="#8C959A" stroke-width="1.48103" stroke-linecap="round" stroke-linejoin="round"/>
<path d="M17.8866 20.1086C19.1136 20.1086 20.1083 19.1139 20.1083 17.8868C20.1083 16.6598 19.1136 15.665 17.8866 15.665C16.6595 15.665 15.6648 16.6598 15.6648 17.8868C15.6648 19.1139 16.6595 20.1086 17.8866 20.1086Z" stroke="#8C959A" stroke-width="1.48103" stroke-linecap="round" stroke-linejoin="round"/>
</g>
<defs>
<clipPath id="clip0_973_2001">
<rect width="17.7724" height="17.7724" fill="white" transform="translate(9 9)"/>
</clipPath>
</defs>
</svg>
