<svg width="21" height="27" viewBox="0 0 21 27" fill="none" xmlns="http://www.w3.org/2000/svg">
<path d="M20.3375 10.7871L17.1613 0.779189C17.1407 0.712223 17.0992 0.653731 17.043 0.612375C16.9868 0.571019 16.9189 0.548997 16.8493 0.54957H14.1358C13.9921 0.54957 13.8694 0.641418 13.8238 0.779189L10.6231 10.7871C10.6126 10.8189 10.6056 10.8542 10.6056 10.8895C10.6056 11.0697 10.7528 11.218 10.9316 11.218H12.9088C13.0561 11.218 13.1823 11.1191 13.2244 10.9778L13.8379 8.80174H16.958L17.5645 10.9743C17.603 11.1156 17.7327 11.2145 17.88 11.2145H20.0255C20.0605 11.2145 20.0921 11.211 20.1236 11.2004C20.2078 11.1721 20.2744 11.1156 20.3165 11.0379C20.355 10.9602 20.362 10.8718 20.3375 10.7871ZM14.1569 6.96125L15.3068 2.83163H15.5276L16.653 6.96125H14.1569ZM19.1876 24.3735H14.6442V24.3593L19.2928 17.6862C19.3314 17.6297 19.3524 17.5661 19.3524 17.4955V16.2096C19.3524 16.0295 19.2051 15.8811 19.0264 15.8811H11.8746C11.6959 15.8811 11.5486 16.0295 11.5486 16.2096V17.7286C11.5486 17.9088 11.6959 18.0572 11.8746 18.0572H16.1727V18.0713L11.5065 24.7444C11.4676 24.8003 11.4468 24.8669 11.4469 24.9352V26.221C11.4469 26.4012 11.5942 26.5496 11.773 26.5496H19.1841C19.3629 26.5496 19.5101 26.4012 19.5101 26.221V24.702C19.5106 24.659 19.5026 24.6164 19.4866 24.5765C19.4706 24.5367 19.4469 24.5005 19.4169 24.4699C19.3869 24.4394 19.3512 24.4151 19.3119 24.3985C19.2725 24.382 19.2303 24.3735 19.1876 24.3735ZM8.7836 20.9691H6.11924V0.732804C6.11924 0.577369 5.99303 0.450195 5.83878 0.450195H3.87557C3.72132 0.450195 3.59511 0.577369 3.59511 0.732804V20.9691H0.930755C0.695871 20.9691 0.562653 21.2447 0.709894 21.4284L4.63631 26.4411C4.66255 26.4749 4.69607 26.5022 4.73433 26.521C4.7726 26.5398 4.81461 26.5496 4.85718 26.5496C4.89974 26.5496 4.94175 26.5398 4.98002 26.521C5.01828 26.5022 5.0518 26.4749 5.07804 26.4411L9.00446 21.4284C9.14819 21.2447 9.01848 20.9691 8.7836 20.9691Z" fill="white"/>
</svg>
