<svg width="16" height="16" viewBox="0 0 16 16" fill="none" xmlns="http://www.w3.org/2000/svg">
<path d="M2.70329 0.79551C2.76174 0.799138 2.81813 0.819826 2.86513 0.855169L2.87652 0.86348L13.5007 8.39233C13.6855 8.53682 13.6401 8.82984 13.4181 8.91065L13.4102 8.91362L10.3868 10.0727L9.83991 10.2823L10.1328 10.7895L11.2728 12.7639C11.5537 13.2505 11.6036 13.6597 11.5162 13.9859C11.4288 14.3122 11.181 14.6416 10.6945 14.9225C10.208 15.2034 9.79887 15.2533 9.47273 15.1658C9.14657 15.0784 8.81716 14.8305 8.53624 14.3439L7.39224 12.3623L7.09932 11.855L6.64429 12.224L4.09277 14.2931L4.0863 14.2984C3.90558 14.4501 3.62923 14.3433 3.59655 14.1105L2.38826 1.14545L2.3876 1.13835L2.38673 1.13127C2.38139 1.08755 2.38575 1.04318 2.39949 1.00133C2.41323 0.959483 2.43602 0.921172 2.46624 0.889123C2.49646 0.857073 2.53336 0.832071 2.57433 0.815892C2.6153 0.799712 2.65933 0.792754 2.70329 0.79551Z" fill="#0064A5" stroke="black"/>
</svg>
