<svg width="24" height="24" viewBox="0 0 24 24" fill="none" xmlns="http://www.w3.org/2000/svg">
<path d="M7.5 14V11.5L13.5 9.5L15.5 10.5L7.5 14Z" fill="#0064A5" stroke="#0064A5"/>
<path d="M13 10V8.5C13 8.10218 12.842 7.72064 12.5607 7.43934C12.2794 7.15804 11.8978 7 11.5 7C11.1022 7 10.7206 7.15804 10.4393 7.43934C10.158 7.72064 10 8.10218 10 8.5V11M13 11V9.5C13 9.10218 13.158 8.72064 13.4393 8.43934C13.7206 8.15804 14.1022 8 14.5 8C14.8978 8 15.2794 8.15804 15.5607 8.43934C15.842 8.72064 16 9.10218 16 9.5V10M7 11.5V4.5C7 4.10218 7.15804 3.72064 7.43934 3.43934C7.72064 3.15804 8.10218 3 8.5 3C8.89782 3 9.27936 3.15804 9.56066 3.43934C9.84196 3.72064 10 4.10218 10 4.5V11M7 14V11.5C7 11.1022 6.84196 10.7206 6.56066 10.4393C6.27936 10.158 5.89782 10 5.5 10C5.10218 10 4.72064 10.158 4.43934 10.4393C4.15804 10.7206 4 11.1022 4 11.5V13.5C4 16 5.5 21 11.5 21C14 21 19 19.5 19 13.5V12C19 11.4696 18.7893 10.9609 18.4142 10.5858C18.0391 10.2107 17.5304 10 17 10H16" fill="#0064A5"/>
<path d="M13 10V8.5C13 8.10218 12.842 7.72064 12.5607 7.43934C12.2794 7.15804 11.8978 7 11.5 7C11.1022 7 10.7206 7.15804 10.4393 7.43934C10.158 7.72064 10 8.10218 10 8.5V11M10 11V4.5C10 4.10218 9.84196 3.72064 9.56066 3.43934C9.27936 3.15804 8.89782 3 8.5 3C8.10218 3 7.72064 3.15804 7.43934 3.43934C7.15804 3.72064 7 4.10218 7 4.5V11.5M10 11V12M7 11.5C7 11.1022 6.84196 10.7206 6.56066 10.4393C6.27936 10.158 5.89782 10 5.5 10C5.10218 10 4.72064 10.158 4.43934 10.4393C4.15804 10.7206 4 11.1022 4 11.5V13.5C4 16 5.5 21 11.5 21C14 21 19 19.5 19 13.5V12C19 11.4696 18.7893 10.9609 18.4142 10.5858C18.0391 10.2107 17.5304 10 17 10H16M7 11.5V14M13 11V9.5C13 9.10218 13.158 8.72064 13.4393 8.43934C13.7206 8.15804 14.1022 8 14.5 8C14.8978 8 15.2794 8.15804 15.5607 8.43934C15.842 8.72064 16 9.10218 16 9.5V10M16 10V12" stroke="black" stroke-linecap="round"/>
</svg>
