<svg width="21" height="27" viewBox="0 0 21 27" fill="none" xmlns="http://www.w3.org/2000/svg">
<path d="M19.1703 8.94258H14.6268V8.92845L19.2754 2.25536C19.314 2.19883 19.335 2.13525 19.335 2.0646V0.778728C19.335 0.598565 19.1878 0.450195 19.009 0.450195H11.8573C11.6785 0.450195 11.5313 0.598565 11.5313 0.778728V2.29775C11.5313 2.47791 11.6785 2.62628 11.8573 2.62628H16.1553V2.64041L11.4892 9.31351C11.4502 9.36936 11.4294 9.436 11.4296 9.50427V10.7901C11.4296 10.9703 11.5768 11.1187 11.7556 11.1187H19.1668C19.3456 11.1187 19.4928 10.9703 19.4928 10.7901V9.27112C19.4933 9.22814 19.4853 9.1855 19.4693 9.14566C19.4533 9.10582 19.4296 9.06957 19.3996 9.03902C19.3696 9.00846 19.3339 8.98421 19.2945 8.96766C19.2551 8.9511 19.2129 8.94258 19.1703 8.94258ZM8.6282 20.9695H5.96384V0.733147C5.96384 0.577712 5.83764 0.450539 5.68339 0.450539H3.72018C3.56592 0.450539 3.43972 0.577712 3.43972 0.733147V20.9695H0.77536C0.540476 20.9695 0.407258 21.245 0.554499 21.4287L4.48092 26.4415C4.50715 26.4752 4.54067 26.5026 4.57894 26.5214C4.61721 26.5401 4.65921 26.5499 4.70178 26.5499C4.74435 26.5499 4.78636 26.5401 4.82462 26.5214C4.86289 26.5026 4.89641 26.4752 4.92264 26.4415L8.84906 21.4287C8.9928 21.245 8.86308 20.9695 8.6282 20.9695Z" fill="white"/>
<path d="M8.6282 20.9691H5.96384V0.732804C5.96384 0.577369 5.83764 0.450195 5.68339 0.450195H3.72018C3.56592 0.450195 3.43972 0.577369 3.43972 0.732804V20.9691H0.77536C0.540476 20.9691 0.407258 21.2447 0.554499 21.4284L4.48092 26.4411C4.50715 26.4749 4.54067 26.5022 4.57894 26.521C4.61721 26.5398 4.65921 26.5496 4.70178 26.5496C4.74435 26.5496 4.78636 26.5398 4.82462 26.521C4.86289 26.5022 4.89641 26.4749 4.92264 26.4411L8.84906 21.4284C8.9928 21.2447 8.86308 20.9691 8.6282 20.9691Z" fill="white"/>
<path d="M20.4928 26.1184L17.3166 16.1105C17.296 16.0435 17.2545 15.985 17.1983 15.9437C17.1421 15.9023 17.0742 15.8803 17.0046 15.8809H14.2911C14.1474 15.8809 14.0247 15.9727 13.9791 16.1105L10.7784 26.1184C10.7679 26.1502 10.7609 26.1855 10.7609 26.2208C10.7609 26.401 10.9081 26.5493 11.0869 26.5493H13.0641C13.2114 26.5493 13.3376 26.4504 13.3796 26.3091L13.9932 24.133H17.1133L17.7198 26.3056C17.7583 26.4469 17.888 26.5458 18.0353 26.5458H20.1808C20.2158 26.5458 20.2474 26.5423 20.2789 26.5317C20.3631 26.5034 20.4297 26.4469 20.4718 26.3692C20.5103 26.2915 20.5173 26.2031 20.4928 26.1184ZM14.3122 22.2926L15.4621 18.1629H15.6829L16.8083 22.2926H14.3122Z" fill="white"/>
</svg>
